<mxfile host="app.diagrams.net" modified="2023-12-29T20:19:14.013Z" agent="Mozilla/5.0 (Windows NT 10.0; Win64; x64) AppleWebKit/537.36 (KHTML, like Gecko) Chrome/120.0.0.0 Safari/537.36 Edg/120.0.0.0" etag="KahKWSUQa6TqvhxOi1G_" version="22.1.16" type="device">
  <diagram id="GjfxxkId27-3Mr2rPUCs" name="Page-1">
    <mxGraphModel dx="1042" dy="969" grid="1" gridSize="10" guides="1" tooltips="1" connect="1" arrows="1" fold="1" page="0" pageScale="1" pageWidth="827" pageHeight="1169" math="1" shadow="0">
      <root>
        <mxCell id="0" />
        <mxCell id="1" parent="0" />
        <mxCell id="sq4ldabJVKeDF1gv15AX-3" style="edgeStyle=orthogonalEdgeStyle;rounded=0;orthogonalLoop=1;jettySize=auto;html=1;exitX=1;exitY=0.5;exitDx=0;exitDy=0;exitPerimeter=0;endArrow=none;endFill=0;" parent="1" source="kmOvb5YyVOMIQkGBQpaO-1" edge="1">
          <mxGeometry relative="1" as="geometry">
            <mxPoint x="190" y="80.00000000000006" as="targetPoint" />
          </mxGeometry>
        </mxCell>
        <mxCell id="sq4ldabJVKeDF1gv15AX-15" style="edgeStyle=orthogonalEdgeStyle;rounded=0;orthogonalLoop=1;jettySize=auto;html=1;exitX=0;exitY=0.75;exitDx=0;exitDy=0;exitPerimeter=0;endArrow=none;endFill=0;" parent="1" source="kmOvb5YyVOMIQkGBQpaO-1" edge="1">
          <mxGeometry relative="1" as="geometry">
            <mxPoint x="50" y="82.16666666666674" as="targetPoint" />
          </mxGeometry>
        </mxCell>
        <mxCell id="UhHVVZy6KvmsFMZ7R_ob-191" style="edgeStyle=orthogonalEdgeStyle;rounded=0;orthogonalLoop=1;jettySize=auto;html=1;exitX=0;exitY=0.25;exitDx=0;exitDy=0;exitPerimeter=0;entryX=0.037;entryY=-0.039;entryDx=0;entryDy=0;entryPerimeter=0;endArrow=none;endFill=0;" parent="1" source="kmOvb5YyVOMIQkGBQpaO-1" target="CC6C3okg9SaEOSG-te2y-40" edge="1">
          <mxGeometry relative="1" as="geometry">
            <Array as="points">
              <mxPoint x="80" y="68" />
            </Array>
          </mxGeometry>
        </mxCell>
        <mxCell id="kmOvb5YyVOMIQkGBQpaO-1" value="" style="verticalLabelPosition=bottom;shadow=0;dashed=0;align=center;html=1;verticalAlign=top;shape=mxgraph.electrical.logic_gates.logic_gate;operation=xor;" parent="1" vertex="1">
          <mxGeometry x="110" y="60" width="60" height="30" as="geometry" />
        </mxCell>
        <mxCell id="kmOvb5YyVOMIQkGBQpaO-16" style="edgeStyle=orthogonalEdgeStyle;rounded=0;orthogonalLoop=1;jettySize=auto;html=1;exitX=1;exitY=0.5;exitDx=0;exitDy=0;exitPerimeter=0;endArrow=none;endFill=0;" parent="1" source="kmOvb5YyVOMIQkGBQpaO-2" edge="1">
          <mxGeometry relative="1" as="geometry">
            <mxPoint x="150" y="125" as="targetPoint" />
          </mxGeometry>
        </mxCell>
        <mxCell id="sq4ldabJVKeDF1gv15AX-11" style="edgeStyle=orthogonalEdgeStyle;rounded=0;orthogonalLoop=1;jettySize=auto;html=1;exitX=1;exitY=0.5;exitDx=0;exitDy=0;exitPerimeter=0;endArrow=none;endFill=0;" parent="1" source="kmOvb5YyVOMIQkGBQpaO-2" edge="1">
          <mxGeometry relative="1" as="geometry">
            <mxPoint x="190" y="124.66666666666674" as="targetPoint" />
          </mxGeometry>
        </mxCell>
        <mxCell id="sq4ldabJVKeDF1gv15AX-32" style="edgeStyle=orthogonalEdgeStyle;rounded=0;orthogonalLoop=1;jettySize=auto;html=1;exitX=0;exitY=0.75;exitDx=0;exitDy=0;exitPerimeter=0;endArrow=none;endFill=0;" parent="1" source="kmOvb5YyVOMIQkGBQpaO-2" edge="1">
          <mxGeometry relative="1" as="geometry">
            <mxPoint x="50" y="132.16666666666674" as="targetPoint" />
          </mxGeometry>
        </mxCell>
        <mxCell id="sq4ldabJVKeDF1gv15AX-33" style="edgeStyle=orthogonalEdgeStyle;rounded=0;orthogonalLoop=1;jettySize=auto;html=1;exitX=0;exitY=0.25;exitDx=0;exitDy=0;exitPerimeter=0;endArrow=none;endFill=0;" parent="1" source="kmOvb5YyVOMIQkGBQpaO-2" edge="1">
          <mxGeometry relative="1" as="geometry">
            <mxPoint x="50" y="117.16666666666674" as="targetPoint" />
          </mxGeometry>
        </mxCell>
        <mxCell id="kmOvb5YyVOMIQkGBQpaO-2" value="" style="verticalLabelPosition=bottom;shadow=0;dashed=0;align=center;html=1;verticalAlign=top;shape=mxgraph.electrical.logic_gates.logic_gate;operation=xor;" parent="1" vertex="1">
          <mxGeometry x="110" y="110" width="60" height="30" as="geometry" />
        </mxCell>
        <mxCell id="kmOvb5YyVOMIQkGBQpaO-15" style="edgeStyle=orthogonalEdgeStyle;rounded=0;orthogonalLoop=1;jettySize=auto;html=1;exitX=1;exitY=0.5;exitDx=0;exitDy=0;exitPerimeter=0;endArrow=none;endFill=0;" parent="1" source="kmOvb5YyVOMIQkGBQpaO-3" edge="1">
          <mxGeometry relative="1" as="geometry">
            <mxPoint x="150" y="175" as="targetPoint" />
          </mxGeometry>
        </mxCell>
        <mxCell id="sq4ldabJVKeDF1gv15AX-10" style="edgeStyle=orthogonalEdgeStyle;rounded=0;orthogonalLoop=1;jettySize=auto;html=1;exitX=1;exitY=0.5;exitDx=0;exitDy=0;exitPerimeter=0;endArrow=none;endFill=0;" parent="1" source="kmOvb5YyVOMIQkGBQpaO-3" edge="1">
          <mxGeometry relative="1" as="geometry">
            <mxPoint x="190" y="174.66666666666674" as="targetPoint" />
          </mxGeometry>
        </mxCell>
        <mxCell id="sq4ldabJVKeDF1gv15AX-30" style="edgeStyle=orthogonalEdgeStyle;rounded=0;orthogonalLoop=1;jettySize=auto;html=1;exitX=0;exitY=0.75;exitDx=0;exitDy=0;exitPerimeter=0;endArrow=none;endFill=0;" parent="1" source="kmOvb5YyVOMIQkGBQpaO-3" edge="1">
          <mxGeometry relative="1" as="geometry">
            <mxPoint x="50" y="182.16666666666674" as="targetPoint" />
          </mxGeometry>
        </mxCell>
        <mxCell id="sq4ldabJVKeDF1gv15AX-31" style="edgeStyle=orthogonalEdgeStyle;rounded=0;orthogonalLoop=1;jettySize=auto;html=1;exitX=0;exitY=0.25;exitDx=0;exitDy=0;exitPerimeter=0;endArrow=none;endFill=0;" parent="1" source="kmOvb5YyVOMIQkGBQpaO-3" edge="1">
          <mxGeometry relative="1" as="geometry">
            <mxPoint x="50" y="167.16666666666674" as="targetPoint" />
          </mxGeometry>
        </mxCell>
        <mxCell id="kmOvb5YyVOMIQkGBQpaO-3" value="" style="verticalLabelPosition=bottom;shadow=0;dashed=0;align=center;html=1;verticalAlign=top;shape=mxgraph.electrical.logic_gates.logic_gate;operation=xor;" parent="1" vertex="1">
          <mxGeometry x="110" y="160" width="60" height="30" as="geometry" />
        </mxCell>
        <mxCell id="kmOvb5YyVOMIQkGBQpaO-13" style="edgeStyle=orthogonalEdgeStyle;rounded=0;orthogonalLoop=1;jettySize=auto;html=1;exitX=1;exitY=0.5;exitDx=0;exitDy=0;exitPerimeter=0;endArrow=none;endFill=0;" parent="1" source="kmOvb5YyVOMIQkGBQpaO-5" edge="1">
          <mxGeometry relative="1" as="geometry">
            <mxPoint x="150" y="275" as="targetPoint" />
          </mxGeometry>
        </mxCell>
        <mxCell id="sq4ldabJVKeDF1gv15AX-6" style="edgeStyle=orthogonalEdgeStyle;rounded=0;orthogonalLoop=1;jettySize=auto;html=1;exitX=1;exitY=0.5;exitDx=0;exitDy=0;exitPerimeter=0;endArrow=none;endFill=0;" parent="1" source="kmOvb5YyVOMIQkGBQpaO-5" edge="1">
          <mxGeometry relative="1" as="geometry">
            <mxPoint x="190" y="284.66666666666674" as="targetPoint" />
          </mxGeometry>
        </mxCell>
        <mxCell id="sq4ldabJVKeDF1gv15AX-26" style="edgeStyle=orthogonalEdgeStyle;rounded=0;orthogonalLoop=1;jettySize=auto;html=1;exitX=0;exitY=0.75;exitDx=0;exitDy=0;exitPerimeter=0;endArrow=none;endFill=0;" parent="1" source="kmOvb5YyVOMIQkGBQpaO-5" edge="1">
          <mxGeometry relative="1" as="geometry">
            <mxPoint x="50" y="282.16666666666674" as="targetPoint" />
          </mxGeometry>
        </mxCell>
        <mxCell id="sq4ldabJVKeDF1gv15AX-27" style="edgeStyle=orthogonalEdgeStyle;rounded=0;orthogonalLoop=1;jettySize=auto;html=1;exitX=0;exitY=0.25;exitDx=0;exitDy=0;exitPerimeter=0;endArrow=none;endFill=0;" parent="1" source="kmOvb5YyVOMIQkGBQpaO-5" edge="1">
          <mxGeometry relative="1" as="geometry">
            <mxPoint x="50" y="267.16666666666674" as="targetPoint" />
          </mxGeometry>
        </mxCell>
        <mxCell id="kmOvb5YyVOMIQkGBQpaO-5" value="" style="verticalLabelPosition=bottom;shadow=0;dashed=0;align=center;html=1;verticalAlign=top;shape=mxgraph.electrical.logic_gates.logic_gate;operation=xor;" parent="1" vertex="1">
          <mxGeometry x="110" y="260" width="60" height="30" as="geometry" />
        </mxCell>
        <mxCell id="kmOvb5YyVOMIQkGBQpaO-12" style="edgeStyle=orthogonalEdgeStyle;rounded=0;orthogonalLoop=1;jettySize=auto;html=1;exitX=1;exitY=0.5;exitDx=0;exitDy=0;exitPerimeter=0;endArrow=none;endFill=0;" parent="1" source="kmOvb5YyVOMIQkGBQpaO-6" edge="1">
          <mxGeometry relative="1" as="geometry">
            <mxPoint x="150" y="325" as="targetPoint" />
          </mxGeometry>
        </mxCell>
        <mxCell id="sq4ldabJVKeDF1gv15AX-7" style="edgeStyle=orthogonalEdgeStyle;rounded=0;orthogonalLoop=1;jettySize=auto;html=1;exitX=1;exitY=0.5;exitDx=0;exitDy=0;exitPerimeter=0;endArrow=none;endFill=0;" parent="1" source="kmOvb5YyVOMIQkGBQpaO-6" edge="1">
          <mxGeometry relative="1" as="geometry">
            <mxPoint x="190" y="329.66666666666674" as="targetPoint" />
          </mxGeometry>
        </mxCell>
        <mxCell id="sq4ldabJVKeDF1gv15AX-24" style="edgeStyle=orthogonalEdgeStyle;rounded=0;orthogonalLoop=1;jettySize=auto;html=1;exitX=0;exitY=0.75;exitDx=0;exitDy=0;exitPerimeter=0;endArrow=none;endFill=0;" parent="1" source="kmOvb5YyVOMIQkGBQpaO-6" edge="1">
          <mxGeometry relative="1" as="geometry">
            <mxPoint x="50" y="327.16666666666674" as="targetPoint" />
          </mxGeometry>
        </mxCell>
        <mxCell id="sq4ldabJVKeDF1gv15AX-25" style="edgeStyle=orthogonalEdgeStyle;rounded=0;orthogonalLoop=1;jettySize=auto;html=1;exitX=0;exitY=0.25;exitDx=0;exitDy=0;exitPerimeter=0;endArrow=none;endFill=0;" parent="1" source="kmOvb5YyVOMIQkGBQpaO-6" edge="1">
          <mxGeometry relative="1" as="geometry">
            <mxPoint x="50" y="312.16666666666674" as="targetPoint" />
          </mxGeometry>
        </mxCell>
        <mxCell id="kmOvb5YyVOMIQkGBQpaO-6" value="" style="verticalLabelPosition=bottom;shadow=0;dashed=0;align=center;html=1;verticalAlign=top;shape=mxgraph.electrical.logic_gates.logic_gate;operation=xor;" parent="1" vertex="1">
          <mxGeometry x="110" y="305" width="60" height="30" as="geometry" />
        </mxCell>
        <mxCell id="kmOvb5YyVOMIQkGBQpaO-46" style="edgeStyle=orthogonalEdgeStyle;rounded=0;orthogonalLoop=1;jettySize=auto;html=1;exitX=1;exitY=0.5;exitDx=0;exitDy=-5;exitPerimeter=0;endArrow=classic;endFill=1;" parent="1" source="kmOvb5YyVOMIQkGBQpaO-8" edge="1">
          <mxGeometry relative="1" as="geometry">
            <mxPoint x="750" y="435" as="targetPoint" />
          </mxGeometry>
        </mxCell>
        <mxCell id="CC6C3okg9SaEOSG-te2y-46" style="edgeStyle=orthogonalEdgeStyle;rounded=0;orthogonalLoop=1;jettySize=auto;html=1;exitX=1;exitY=0.5;exitDx=0;exitDy=-5;exitPerimeter=0;entryX=0;entryY=0.5;entryDx=0;entryDy=0;endArrow=classic;endFill=1;" parent="1" source="kmOvb5YyVOMIQkGBQpaO-8" target="CC6C3okg9SaEOSG-te2y-40" edge="1">
          <mxGeometry relative="1" as="geometry">
            <Array as="points">
              <mxPoint x="710" y="435" />
              <mxPoint x="710" y="20" />
              <mxPoint x="45" y="20" />
            </Array>
          </mxGeometry>
        </mxCell>
        <mxCell id="CC6C3okg9SaEOSG-te2y-71" style="edgeStyle=orthogonalEdgeStyle;rounded=0;orthogonalLoop=1;jettySize=auto;html=1;exitX=0;exitY=0.21666666666666667;exitDx=0;exitDy=3;exitPerimeter=0;startArrow=diamond;startFill=0;endArrow=classic;endFill=1;" parent="1" source="kmOvb5YyVOMIQkGBQpaO-8" edge="1">
          <mxGeometry relative="1" as="geometry">
            <mxPoint x="588.8095238095239" y="409.2380952380952" as="targetPoint" />
          </mxGeometry>
        </mxCell>
        <mxCell id="kmOvb5YyVOMIQkGBQpaO-8" value="&lt;font style=&quot;font-size: 13px&quot;&gt;$$\mbox{Mux}$$&lt;/font&gt;" style="shadow=0;dashed=0;align=center;html=1;strokeWidth=1;shape=mxgraph.electrical.abstract.mux2;" parent="1" vertex="1">
          <mxGeometry x="589" y="380" width="80" height="120" as="geometry" />
        </mxCell>
        <mxCell id="kmOvb5YyVOMIQkGBQpaO-10" value="" style="rounded=0;whiteSpace=wrap;html=1;rotation=90;" parent="1" vertex="1">
          <mxGeometry x="346.5" y="222.5" width="120" height="85" as="geometry" />
        </mxCell>
        <mxCell id="kmOvb5YyVOMIQkGBQpaO-45" value="&lt;font face=&quot;Times New Roman&quot; style=&quot;font-size: 18px&quot;&gt;$$x_{n+1}$$&lt;/font&gt;" style="text;html=1;strokeColor=none;fillColor=none;align=center;verticalAlign=middle;whiteSpace=wrap;rounded=0;" parent="1" vertex="1">
          <mxGeometry x="750" y="422.5" width="60" height="20" as="geometry" />
        </mxCell>
        <mxCell id="kmOvb5YyVOMIQkGBQpaO-48" value="&lt;font face=&quot;Times New Roman&quot; style=&quot;font-size: 14px&quot;&gt;$$\mbox{Clk}$$&lt;/font&gt;" style="text;html=1;strokeColor=none;fillColor=none;align=center;verticalAlign=middle;whiteSpace=wrap;rounded=0;" parent="1" vertex="1">
          <mxGeometry x="364" y="255" width="25" height="20" as="geometry" />
        </mxCell>
        <mxCell id="kmOvb5YyVOMIQkGBQpaO-49" value="&lt;font face=&quot;Times New Roman&quot; style=&quot;font-size: 14px&quot;&gt;$$\mbox{Rst}$$&lt;/font&gt;" style="text;html=1;strokeColor=none;fillColor=none;align=center;verticalAlign=middle;whiteSpace=wrap;rounded=0;" parent="1" vertex="1">
          <mxGeometry x="386.5" y="305" width="40" height="20" as="geometry" />
        </mxCell>
        <mxCell id="CC6C3okg9SaEOSG-te2y-68" style="edgeStyle=orthogonalEdgeStyle;rounded=0;orthogonalLoop=1;jettySize=auto;html=1;exitX=1;exitY=0.5;exitDx=0;exitDy=0;entryX=0.25;entryY=1;entryDx=0;entryDy=0;startArrow=none;startFill=0;endArrow=classic;endFill=1;" parent="1" source="kmOvb5YyVOMIQkGBQpaO-52" target="CC6C3okg9SaEOSG-te2y-51" edge="1">
          <mxGeometry relative="1" as="geometry">
            <Array as="points">
              <mxPoint x="489" y="265" />
              <mxPoint x="489" y="398" />
            </Array>
          </mxGeometry>
        </mxCell>
        <mxCell id="kmOvb5YyVOMIQkGBQpaO-52" value="&lt;font face=&quot;Times New Roman&quot; style=&quot;font-size: 14px&quot;&gt;$$\mbox{Q}$$&lt;/font&gt;" style="text;html=1;strokeColor=none;fillColor=none;align=center;verticalAlign=middle;whiteSpace=wrap;rounded=0;" parent="1" vertex="1">
          <mxGeometry x="426.5" y="255" width="22.5" height="20" as="geometry" />
        </mxCell>
        <mxCell id="kmOvb5YyVOMIQkGBQpaO-53" value="&lt;span style=&quot;font-family: &amp;#34;times new roman&amp;#34; ; font-size: 13px&quot;&gt;$$\mbox{Flip-Flop}$$&lt;/span&gt;" style="text;html=1;strokeColor=none;fillColor=none;align=center;verticalAlign=middle;whiteSpace=wrap;rounded=0;" parent="1" vertex="1">
          <mxGeometry x="386.5" y="230" width="40" height="20" as="geometry" />
        </mxCell>
        <mxCell id="kmOvb5YyVOMIQkGBQpaO-93" value="&lt;font face=&quot;Times New Roman&quot; style=&quot;font-size: 15px&quot;&gt;$$b_1$$&lt;/font&gt;" style="text;html=1;strokeColor=none;fillColor=none;align=center;verticalAlign=middle;whiteSpace=wrap;rounded=0;" parent="1" vertex="1">
          <mxGeometry x="55" y="375" width="30" height="15" as="geometry" />
        </mxCell>
        <mxCell id="VwCjCpoKsMonTpkTVioX-4" style="edgeStyle=orthogonalEdgeStyle;rounded=0;orthogonalLoop=1;jettySize=auto;html=1;exitX=1;exitY=0.5;exitDx=0;exitDy=0;exitPerimeter=0;endArrow=none;endFill=0;" parent="1" source="VwCjCpoKsMonTpkTVioX-1" edge="1">
          <mxGeometry relative="1" as="geometry">
            <mxPoint x="150.20689655172418" y="365.34482758620686" as="targetPoint" />
          </mxGeometry>
        </mxCell>
        <mxCell id="sq4ldabJVKeDF1gv15AX-2" style="edgeStyle=orthogonalEdgeStyle;rounded=0;orthogonalLoop=1;jettySize=auto;html=1;exitX=1;exitY=0.5;exitDx=0;exitDy=0;exitPerimeter=0;endArrow=none;endFill=0;" parent="1" source="VwCjCpoKsMonTpkTVioX-1" edge="1">
          <mxGeometry relative="1" as="geometry">
            <mxPoint x="190" y="80" as="targetPoint" />
          </mxGeometry>
        </mxCell>
        <mxCell id="sq4ldabJVKeDF1gv15AX-23" style="edgeStyle=orthogonalEdgeStyle;rounded=0;orthogonalLoop=1;jettySize=auto;html=1;exitX=0;exitY=0.25;exitDx=0;exitDy=0;exitPerimeter=0;endArrow=none;endFill=0;" parent="1" source="VwCjCpoKsMonTpkTVioX-1" edge="1">
          <mxGeometry relative="1" as="geometry">
            <mxPoint x="50" y="359.66666666666674" as="targetPoint" />
          </mxGeometry>
        </mxCell>
        <mxCell id="UhHVVZy6KvmsFMZ7R_ob-192" style="edgeStyle=orthogonalEdgeStyle;rounded=0;orthogonalLoop=1;jettySize=auto;html=1;exitX=0;exitY=0.75;exitDx=0;exitDy=0;exitPerimeter=0;endArrow=none;endFill=0;" parent="1" source="VwCjCpoKsMonTpkTVioX-1" edge="1">
          <mxGeometry relative="1" as="geometry">
            <mxPoint x="50" y="375" as="targetPoint" />
          </mxGeometry>
        </mxCell>
        <mxCell id="VwCjCpoKsMonTpkTVioX-1" value="" style="verticalLabelPosition=bottom;shadow=0;dashed=0;align=center;html=1;verticalAlign=top;shape=mxgraph.electrical.logic_gates.logic_gate;operation=xor;" parent="1" vertex="1">
          <mxGeometry x="110" y="352.5" width="60" height="30" as="geometry" />
        </mxCell>
        <mxCell id="VwCjCpoKsMonTpkTVioX-24" value="" style="rounded=0;whiteSpace=wrap;html=1;rotation=90;" parent="1" vertex="1">
          <mxGeometry x="346.5" y="487.5" width="120" height="85" as="geometry" />
        </mxCell>
        <mxCell id="VwCjCpoKsMonTpkTVioX-25" value="&lt;font face=&quot;Times New Roman&quot; style=&quot;font-size: 14px&quot;&gt;$$\mbox{D}$$&lt;/font&gt;" style="text;html=1;strokeColor=none;fillColor=none;align=center;verticalAlign=middle;whiteSpace=wrap;rounded=0;" parent="1" vertex="1">
          <mxGeometry x="364" y="475" width="17.5" height="20" as="geometry" />
        </mxCell>
        <mxCell id="VwCjCpoKsMonTpkTVioX-26" value="&lt;font face=&quot;Times New Roman&quot; style=&quot;font-size: 14px&quot;&gt;$$\mbox{Clk}$$&lt;/font&gt;" style="text;html=1;strokeColor=none;fillColor=none;align=center;verticalAlign=middle;whiteSpace=wrap;rounded=0;" parent="1" vertex="1">
          <mxGeometry x="364" y="520" width="25" height="20" as="geometry" />
        </mxCell>
        <mxCell id="VwCjCpoKsMonTpkTVioX-27" value="&lt;font face=&quot;Times New Roman&quot; style=&quot;font-size: 14px&quot;&gt;$$\mbox{Rst}$$&lt;/font&gt;" style="text;html=1;strokeColor=none;fillColor=none;align=center;verticalAlign=middle;whiteSpace=wrap;rounded=0;" parent="1" vertex="1">
          <mxGeometry x="386.5" y="570" width="40" height="20" as="geometry" />
        </mxCell>
        <mxCell id="VwCjCpoKsMonTpkTVioX-28" value="&lt;font face=&quot;Times New Roman&quot; style=&quot;font-size: 13px&quot;&gt;$$\mbox{Flip-Flop}$$&lt;/font&gt;" style="text;html=1;strokeColor=none;fillColor=none;align=center;verticalAlign=middle;whiteSpace=wrap;rounded=0;" parent="1" vertex="1">
          <mxGeometry x="386.5" y="495" width="40" height="20" as="geometry" />
        </mxCell>
        <mxCell id="CC6C3okg9SaEOSG-te2y-67" style="edgeStyle=orthogonalEdgeStyle;rounded=0;orthogonalLoop=1;jettySize=auto;html=1;exitX=1;exitY=0.5;exitDx=0;exitDy=0;entryX=0.75;entryY=1;entryDx=0;entryDy=0;startArrow=none;startFill=0;endArrow=classic;endFill=1;" parent="1" source="VwCjCpoKsMonTpkTVioX-30" target="CC6C3okg9SaEOSG-te2y-51" edge="1">
          <mxGeometry relative="1" as="geometry">
            <Array as="points">
              <mxPoint x="489" y="530" />
              <mxPoint x="489" y="423" />
            </Array>
          </mxGeometry>
        </mxCell>
        <mxCell id="VwCjCpoKsMonTpkTVioX-30" value="&lt;font face=&quot;Times New Roman&quot; style=&quot;font-size: 14px&quot;&gt;$$\mbox{Q}$$&lt;/font&gt;" style="text;html=1;strokeColor=none;fillColor=none;align=center;verticalAlign=middle;whiteSpace=wrap;rounded=0;" parent="1" vertex="1">
          <mxGeometry x="429" y="520" width="20" height="20" as="geometry" />
        </mxCell>
        <mxCell id="sq4ldabJVKeDF1gv15AX-5" value="&lt;font face=&quot;Times New Roman&quot; style=&quot;font-size: 14px&quot;&gt;$$\mbox{D}$$&lt;/font&gt;" style="text;html=1;strokeColor=none;fillColor=none;align=center;verticalAlign=middle;whiteSpace=wrap;rounded=0;" parent="1" vertex="1">
          <mxGeometry x="364" y="210" width="17.5" height="20" as="geometry" />
        </mxCell>
        <mxCell id="sq4ldabJVKeDF1gv15AX-9" style="edgeStyle=orthogonalEdgeStyle;rounded=0;orthogonalLoop=1;jettySize=auto;html=1;exitX=1;exitY=0.5;exitDx=0;exitDy=0;exitPerimeter=0;endArrow=none;endFill=0;" parent="1" source="sq4ldabJVKeDF1gv15AX-8" edge="1">
          <mxGeometry relative="1" as="geometry">
            <mxPoint x="190" y="224.66666666666674" as="targetPoint" />
          </mxGeometry>
        </mxCell>
        <mxCell id="sq4ldabJVKeDF1gv15AX-28" style="edgeStyle=orthogonalEdgeStyle;rounded=0;orthogonalLoop=1;jettySize=auto;html=1;exitX=0;exitY=0.75;exitDx=0;exitDy=0;exitPerimeter=0;endArrow=none;endFill=0;" parent="1" source="sq4ldabJVKeDF1gv15AX-8" edge="1">
          <mxGeometry relative="1" as="geometry">
            <mxPoint x="50" y="232.16666666666674" as="targetPoint" />
          </mxGeometry>
        </mxCell>
        <mxCell id="sq4ldabJVKeDF1gv15AX-29" style="edgeStyle=orthogonalEdgeStyle;rounded=0;orthogonalLoop=1;jettySize=auto;html=1;exitX=0;exitY=0.25;exitDx=0;exitDy=0;exitPerimeter=0;endArrow=none;endFill=0;" parent="1" source="sq4ldabJVKeDF1gv15AX-8" edge="1">
          <mxGeometry relative="1" as="geometry">
            <mxPoint x="50" y="217.16666666666674" as="targetPoint" />
          </mxGeometry>
        </mxCell>
        <mxCell id="sq4ldabJVKeDF1gv15AX-8" value="" style="verticalLabelPosition=bottom;shadow=0;dashed=0;align=center;html=1;verticalAlign=top;shape=mxgraph.electrical.logic_gates.logic_gate;operation=xor;" parent="1" vertex="1">
          <mxGeometry x="110" y="210" width="60" height="30" as="geometry" />
        </mxCell>
        <mxCell id="sq4ldabJVKeDF1gv15AX-36" value="&lt;font face=&quot;Times New Roman&quot; style=&quot;font-size: 15px&quot;&gt;$$b_1$$&lt;/font&gt;" style="text;html=1;strokeColor=none;fillColor=none;align=center;verticalAlign=middle;whiteSpace=wrap;rounded=0;" parent="1" vertex="1">
          <mxGeometry x="50" y="325" width="40" height="20" as="geometry" />
        </mxCell>
        <mxCell id="sq4ldabJVKeDF1gv15AX-37" value="&lt;font face=&quot;Times New Roman&quot; style=&quot;font-size: 15px&quot;&gt;$$b_1$$&lt;/font&gt;" style="text;html=1;strokeColor=none;fillColor=none;align=center;verticalAlign=middle;whiteSpace=wrap;rounded=0;" parent="1" vertex="1">
          <mxGeometry x="50" y="280" width="40" height="20" as="geometry" />
        </mxCell>
        <mxCell id="sq4ldabJVKeDF1gv15AX-38" value="&lt;font face=&quot;Times New Roman&quot; style=&quot;font-size: 15px&quot;&gt;$$b_1$$&lt;/font&gt;" style="text;html=1;strokeColor=none;fillColor=none;align=center;verticalAlign=middle;whiteSpace=wrap;rounded=0;" parent="1" vertex="1">
          <mxGeometry x="50" y="230" width="40" height="20" as="geometry" />
        </mxCell>
        <mxCell id="sq4ldabJVKeDF1gv15AX-39" value="&lt;font face=&quot;Times New Roman&quot; style=&quot;font-size: 15px&quot;&gt;$$b_1$$&lt;/font&gt;" style="text;html=1;strokeColor=none;fillColor=none;align=center;verticalAlign=middle;whiteSpace=wrap;rounded=0;" parent="1" vertex="1">
          <mxGeometry x="50" y="180" width="40" height="20" as="geometry" />
        </mxCell>
        <mxCell id="sq4ldabJVKeDF1gv15AX-40" value="&lt;font face=&quot;Times New Roman&quot; style=&quot;font-size: 15px&quot;&gt;$$b_1$$&lt;/font&gt;" style="text;html=1;strokeColor=none;fillColor=none;align=center;verticalAlign=middle;whiteSpace=wrap;rounded=0;" parent="1" vertex="1">
          <mxGeometry x="50" y="130" width="40" height="20" as="geometry" />
        </mxCell>
        <mxCell id="sq4ldabJVKeDF1gv15AX-41" value="&lt;font face=&quot;Times New Roman&quot; style=&quot;font-size: 15px&quot;&gt;$$b_1$$&lt;/font&gt;" style="text;html=1;strokeColor=none;fillColor=none;align=center;verticalAlign=middle;whiteSpace=wrap;rounded=0;" parent="1" vertex="1">
          <mxGeometry x="50" y="80" width="40" height="17.5" as="geometry" />
        </mxCell>
        <mxCell id="sq4ldabJVKeDF1gv15AX-43" value="&lt;font face=&quot;Times New Roman&quot; style=&quot;font-size: 15px&quot;&gt;$$b_3$$&lt;/font&gt;" style="text;html=1;strokeColor=none;fillColor=none;align=center;verticalAlign=middle;whiteSpace=wrap;rounded=0;" parent="1" vertex="1">
          <mxGeometry x="50" y="105" width="40" height="10" as="geometry" />
        </mxCell>
        <mxCell id="sq4ldabJVKeDF1gv15AX-44" value="&lt;font face=&quot;Times New Roman&quot; style=&quot;font-size: 15px&quot;&gt;$$b_4$$&lt;/font&gt;" style="text;html=1;strokeColor=none;fillColor=none;align=center;verticalAlign=middle;whiteSpace=wrap;rounded=0;" parent="1" vertex="1">
          <mxGeometry x="55" y="150" width="30" height="20" as="geometry" />
        </mxCell>
        <mxCell id="sq4ldabJVKeDF1gv15AX-47" value="&lt;font face=&quot;Times New Roman&quot; style=&quot;font-size: 15px&quot;&gt;$$b_8$$&lt;/font&gt;" style="text;html=1;strokeColor=none;fillColor=none;align=center;verticalAlign=middle;whiteSpace=wrap;rounded=0;" parent="1" vertex="1">
          <mxGeometry x="50" y="342.5" width="40" height="17.5" as="geometry" />
        </mxCell>
        <mxCell id="sq4ldabJVKeDF1gv15AX-48" value="&lt;font face=&quot;Times New Roman&quot; style=&quot;font-size: 15px&quot;&gt;$$b_7$$&lt;/font&gt;" style="text;html=1;strokeColor=none;fillColor=none;align=center;verticalAlign=middle;whiteSpace=wrap;rounded=0;" parent="1" vertex="1">
          <mxGeometry x="50" y="300" width="40" height="10" as="geometry" />
        </mxCell>
        <mxCell id="sq4ldabJVKeDF1gv15AX-49" value="&lt;font face=&quot;Times New Roman&quot; style=&quot;font-size: 15px&quot;&gt;$$b_6$$&lt;/font&gt;" style="text;html=1;strokeColor=none;fillColor=none;align=center;verticalAlign=middle;whiteSpace=wrap;rounded=0;" parent="1" vertex="1">
          <mxGeometry x="50" y="250" width="40" height="20" as="geometry" />
        </mxCell>
        <mxCell id="sq4ldabJVKeDF1gv15AX-50" value="&lt;font face=&quot;Times New Roman&quot; style=&quot;font-size: 15px&quot;&gt;$$b_5$$&lt;/font&gt;" style="text;html=1;strokeColor=none;fillColor=none;align=center;verticalAlign=middle;whiteSpace=wrap;rounded=0;" parent="1" vertex="1">
          <mxGeometry x="50" y="200" width="40" height="20" as="geometry" />
        </mxCell>
        <mxCell id="iDIzsfNDpfCy3vQxhfhM-3" value="&lt;font face=&quot;Times New Roman&quot; style=&quot;font-size: 15px&quot;&gt;$$b_2$$&lt;/font&gt;" style="text;html=1;strokeColor=none;fillColor=none;align=center;verticalAlign=middle;whiteSpace=wrap;rounded=0;" parent="1" vertex="1">
          <mxGeometry x="50" y="50" width="40" height="17.5" as="geometry" />
        </mxCell>
        <mxCell id="CC6C3okg9SaEOSG-te2y-35" style="edgeStyle=orthogonalEdgeStyle;rounded=0;orthogonalLoop=1;jettySize=auto;html=1;exitX=0.5;exitY=0;exitDx=0;exitDy=0;entryX=0;entryY=0.5;entryDx=0;entryDy=0;endArrow=classic;endFill=1;" parent="1" source="CC6C3okg9SaEOSG-te2y-32" target="sq4ldabJVKeDF1gv15AX-5" edge="1">
          <mxGeometry relative="1" as="geometry" />
        </mxCell>
        <mxCell id="UhHVVZy6KvmsFMZ7R_ob-210" style="edgeStyle=orthogonalEdgeStyle;rounded=0;orthogonalLoop=1;jettySize=auto;html=1;exitX=0.5;exitY=1;exitDx=0;exitDy=0;startArrow=none;startFill=0;endArrow=none;endFill=0;" parent="1" source="CC6C3okg9SaEOSG-te2y-32" edge="1">
          <mxGeometry relative="1" as="geometry">
            <mxPoint x="190" y="220.15151515151524" as="targetPoint" />
            <Array as="points">
              <mxPoint x="230" y="220" />
              <mxPoint x="230" y="220" />
            </Array>
          </mxGeometry>
        </mxCell>
        <mxCell id="CC6C3okg9SaEOSG-te2y-32" value="" style="rounded=1;whiteSpace=wrap;html=1;direction=south;" parent="1" vertex="1">
          <mxGeometry x="259" y="195" width="50" height="50" as="geometry" />
        </mxCell>
        <mxCell id="CC6C3okg9SaEOSG-te2y-33" value="&lt;font face=&quot;Times New Roman&quot; style=&quot;font-size: 16px&quot;&gt;$$\mbox{&amp;amp;}$$&lt;/font&gt;" style="text;html=1;strokeColor=none;fillColor=none;align=center;verticalAlign=middle;whiteSpace=wrap;rounded=0;" parent="1" vertex="1">
          <mxGeometry x="264" y="210" width="40" height="20" as="geometry" />
        </mxCell>
        <mxCell id="CC6C3okg9SaEOSG-te2y-40" value="" style="rounded=1;whiteSpace=wrap;html=1;direction=south;" parent="1" vertex="1">
          <mxGeometry x="40" y="40" width="10" height="750" as="geometry" />
        </mxCell>
        <mxCell id="CC6C3okg9SaEOSG-te2y-47" value="&lt;font face=&quot;Times New Roman&quot; style=&quot;font-size: 16px&quot;&gt;$$\mbox{16 bits}$$&lt;/font&gt;" style="text;html=1;strokeColor=none;fillColor=none;align=center;verticalAlign=middle;whiteSpace=wrap;rounded=0;" parent="1" vertex="1">
          <mxGeometry x="300" width="40" height="20" as="geometry" />
        </mxCell>
        <mxCell id="CC6C3okg9SaEOSG-te2y-48" value="&lt;font face=&quot;Times New Roman&quot; style=&quot;font-size: 16px&quot;&gt;$$\mbox{15 bits}$$&lt;/font&gt;" style="text;html=1;strokeColor=none;fillColor=none;align=center;verticalAlign=middle;whiteSpace=wrap;rounded=0;" parent="1" vertex="1">
          <mxGeometry x="309" y="202.5" width="50" height="20" as="geometry" />
        </mxCell>
        <mxCell id="CC6C3okg9SaEOSG-te2y-72" style="edgeStyle=orthogonalEdgeStyle;rounded=0;orthogonalLoop=1;jettySize=auto;html=1;exitX=0.5;exitY=0;exitDx=0;exitDy=0;entryX=0;entryY=0.21666666666666667;entryDx=0;entryDy=3;entryPerimeter=0;startArrow=none;startFill=0;endArrow=classic;endFill=1;" parent="1" source="CC6C3okg9SaEOSG-te2y-51" target="kmOvb5YyVOMIQkGBQpaO-8" edge="1">
          <mxGeometry relative="1" as="geometry">
            <Array as="points">
              <mxPoint x="579" y="410" />
            </Array>
          </mxGeometry>
        </mxCell>
        <mxCell id="CC6C3okg9SaEOSG-te2y-51" value="" style="rounded=1;whiteSpace=wrap;html=1;direction=south;" parent="1" vertex="1">
          <mxGeometry x="509" y="385" width="50" height="50" as="geometry" />
        </mxCell>
        <mxCell id="CC6C3okg9SaEOSG-te2y-52" value="&lt;font face=&quot;Times New Roman&quot; style=&quot;font-size: 16px&quot;&gt;$$\mbox{&amp;amp;}$$&lt;/font&gt;" style="text;html=1;strokeColor=none;fillColor=none;align=center;verticalAlign=middle;whiteSpace=wrap;rounded=0;" parent="1" vertex="1">
          <mxGeometry x="514" y="400" width="40" height="20" as="geometry" />
        </mxCell>
        <mxCell id="CC6C3okg9SaEOSG-te2y-61" style="edgeStyle=orthogonalEdgeStyle;rounded=0;orthogonalLoop=1;jettySize=auto;html=1;entryX=0.5;entryY=1;entryDx=0;entryDy=0;endArrow=classic;endFill=1;startArrow=diamond;startFill=0;" parent="1" source="CC6C3okg9SaEOSG-te2y-62" edge="1">
          <mxGeometry relative="1" as="geometry">
            <mxPoint x="99" y="390" as="sourcePoint" />
            <mxPoint x="406.5" y="325" as="targetPoint" />
          </mxGeometry>
        </mxCell>
        <mxCell id="CC6C3okg9SaEOSG-te2y-62" value="&lt;font face=&quot;Times New Roman&quot; style=&quot;font-size: 16px&quot;&gt;$$\mbox{Reset}$$&lt;/font&gt;" style="text;html=1;strokeColor=none;fillColor=none;align=center;verticalAlign=middle;whiteSpace=wrap;rounded=0;rotation=0;" parent="1" vertex="1">
          <mxGeometry x="264" y="340" width="40" height="20" as="geometry" />
        </mxCell>
        <mxCell id="CC6C3okg9SaEOSG-te2y-64" style="edgeStyle=orthogonalEdgeStyle;rounded=0;orthogonalLoop=1;jettySize=auto;html=1;exitX=1;exitY=0.5;exitDx=0;exitDy=0;entryX=0;entryY=0.5;entryDx=0;entryDy=0;startArrow=diamond;startFill=0;endArrow=classic;endFill=1;" parent="1" source="CC6C3okg9SaEOSG-te2y-63" target="kmOvb5YyVOMIQkGBQpaO-48" edge="1">
          <mxGeometry relative="1" as="geometry" />
        </mxCell>
        <mxCell id="CC6C3okg9SaEOSG-te2y-63" value="&lt;font face=&quot;Times New Roman&quot; style=&quot;font-size: 16px&quot;&gt;$$\mbox{Clock}$$&lt;/font&gt;" style="text;html=1;strokeColor=none;fillColor=none;align=center;verticalAlign=middle;whiteSpace=wrap;rounded=0;" parent="1" vertex="1">
          <mxGeometry x="264" y="255" width="40" height="20" as="geometry" />
        </mxCell>
        <mxCell id="CC6C3okg9SaEOSG-te2y-73" value="&lt;font face=&quot;Times New Roman&quot; style=&quot;font-size: 16px&quot;&gt;$$\mbox{16 bits}$$&lt;/font&gt;" style="text;html=1;strokeColor=none;fillColor=none;align=center;verticalAlign=middle;whiteSpace=wrap;rounded=0;rotation=0;" parent="1" vertex="1">
          <mxGeometry x="529" y="440" width="40" height="20" as="geometry" />
        </mxCell>
        <mxCell id="CC6C3okg9SaEOSG-te2y-74" value="&lt;font face=&quot;Times New Roman&quot; style=&quot;font-size: 16px&quot;&gt;$$\mbox{16 bits}$$&lt;/font&gt;" style="text;html=1;strokeColor=none;fillColor=none;align=center;verticalAlign=middle;whiteSpace=wrap;rounded=0;rotation=0;" parent="1" vertex="1">
          <mxGeometry x="677.5" y="440" width="40" height="20" as="geometry" />
        </mxCell>
        <mxCell id="CC6C3okg9SaEOSG-te2y-75" value="&lt;font face=&quot;Times New Roman&quot; style=&quot;font-size: 16px&quot;&gt;$$\mbox{1 bit}$$&lt;/font&gt;" style="text;html=1;strokeColor=none;fillColor=none;align=center;verticalAlign=middle;whiteSpace=wrap;rounded=0;rotation=0;" parent="1" vertex="1">
          <mxGeometry x="449" y="507.5" width="40" height="20" as="geometry" />
        </mxCell>
        <mxCell id="CC6C3okg9SaEOSG-te2y-76" value="&lt;font face=&quot;Times New Roman&quot; style=&quot;font-size: 16px&quot;&gt;$$\mbox{15 bits}$$&lt;/font&gt;" style="text;html=1;strokeColor=none;fillColor=none;align=center;verticalAlign=middle;whiteSpace=wrap;rounded=0;" parent="1" vertex="1">
          <mxGeometry x="449" y="245" width="50" height="20" as="geometry" />
        </mxCell>
        <mxCell id="UhHVVZy6KvmsFMZ7R_ob-1" style="edgeStyle=orthogonalEdgeStyle;rounded=0;orthogonalLoop=1;jettySize=auto;html=1;endArrow=none;endFill=0;" parent="1" edge="1">
          <mxGeometry relative="1" as="geometry">
            <mxPoint x="190" y="420" as="targetPoint" />
            <mxPoint x="190" y="360" as="sourcePoint" />
          </mxGeometry>
        </mxCell>
        <mxCell id="UhHVVZy6KvmsFMZ7R_ob-4" style="edgeStyle=orthogonalEdgeStyle;rounded=0;orthogonalLoop=1;jettySize=auto;html=1;exitX=0;exitY=0.25;exitDx=0;exitDy=0;exitPerimeter=0;entryX=0.079;entryY=-0.025;entryDx=0;entryDy=0;entryPerimeter=0;endArrow=none;endFill=0;" parent="1" source="UhHVVZy6KvmsFMZ7R_ob-5" edge="1">
          <mxGeometry relative="1" as="geometry">
            <mxPoint x="50.25" y="407.6500000000001" as="targetPoint" />
          </mxGeometry>
        </mxCell>
        <mxCell id="UhHVVZy6KvmsFMZ7R_ob-202" style="edgeStyle=orthogonalEdgeStyle;rounded=0;orthogonalLoop=1;jettySize=auto;html=1;exitX=0;exitY=0.75;exitDx=0;exitDy=0;exitPerimeter=0;endArrow=none;endFill=0;entryX=0.51;entryY=-0.021;entryDx=0;entryDy=0;entryPerimeter=0;" parent="1" source="UhHVVZy6KvmsFMZ7R_ob-5" target="CC6C3okg9SaEOSG-te2y-40" edge="1">
          <mxGeometry relative="1" as="geometry">
            <mxPoint x="100" y="422.5652173913045" as="targetPoint" />
          </mxGeometry>
        </mxCell>
        <mxCell id="UhHVVZy6KvmsFMZ7R_ob-203" style="edgeStyle=orthogonalEdgeStyle;rounded=0;orthogonalLoop=1;jettySize=auto;html=1;exitX=1;exitY=0.5;exitDx=0;exitDy=0;exitPerimeter=0;endArrow=none;endFill=0;" parent="1" source="UhHVVZy6KvmsFMZ7R_ob-5" edge="1">
          <mxGeometry relative="1" as="geometry">
            <mxPoint x="190" y="415.0588235294117" as="targetPoint" />
          </mxGeometry>
        </mxCell>
        <mxCell id="UhHVVZy6KvmsFMZ7R_ob-5" value="" style="verticalLabelPosition=bottom;shadow=0;dashed=0;align=center;html=1;verticalAlign=top;shape=mxgraph.electrical.logic_gates.logic_gate;operation=xor;" parent="1" vertex="1">
          <mxGeometry x="110" y="400" width="60" height="30" as="geometry" />
        </mxCell>
        <mxCell id="UhHVVZy6KvmsFMZ7R_ob-6" style="edgeStyle=orthogonalEdgeStyle;rounded=0;orthogonalLoop=1;jettySize=auto;html=1;exitX=1;exitY=0.5;exitDx=0;exitDy=0;exitPerimeter=0;endArrow=none;endFill=0;" parent="1" source="UhHVVZy6KvmsFMZ7R_ob-10" edge="1">
          <mxGeometry relative="1" as="geometry">
            <mxPoint x="150" y="465" as="targetPoint" />
          </mxGeometry>
        </mxCell>
        <mxCell id="UhHVVZy6KvmsFMZ7R_ob-7" style="edgeStyle=orthogonalEdgeStyle;rounded=0;orthogonalLoop=1;jettySize=auto;html=1;exitX=1;exitY=0.5;exitDx=0;exitDy=0;exitPerimeter=0;endArrow=none;endFill=0;" parent="1" source="UhHVVZy6KvmsFMZ7R_ob-10" edge="1">
          <mxGeometry relative="1" as="geometry">
            <mxPoint x="190" y="464.66666666666674" as="targetPoint" />
          </mxGeometry>
        </mxCell>
        <mxCell id="UhHVVZy6KvmsFMZ7R_ob-8" style="edgeStyle=orthogonalEdgeStyle;rounded=0;orthogonalLoop=1;jettySize=auto;html=1;exitX=0;exitY=0.75;exitDx=0;exitDy=0;exitPerimeter=0;endArrow=none;endFill=0;" parent="1" source="UhHVVZy6KvmsFMZ7R_ob-10" edge="1">
          <mxGeometry relative="1" as="geometry">
            <mxPoint x="50" y="472.16666666666674" as="targetPoint" />
          </mxGeometry>
        </mxCell>
        <mxCell id="UhHVVZy6KvmsFMZ7R_ob-9" style="edgeStyle=orthogonalEdgeStyle;rounded=0;orthogonalLoop=1;jettySize=auto;html=1;exitX=0;exitY=0.25;exitDx=0;exitDy=0;exitPerimeter=0;endArrow=none;endFill=0;" parent="1" source="UhHVVZy6KvmsFMZ7R_ob-10" edge="1">
          <mxGeometry relative="1" as="geometry">
            <mxPoint x="50" y="457.16666666666674" as="targetPoint" />
          </mxGeometry>
        </mxCell>
        <mxCell id="UhHVVZy6KvmsFMZ7R_ob-10" value="" style="verticalLabelPosition=bottom;shadow=0;dashed=0;align=center;html=1;verticalAlign=top;shape=mxgraph.electrical.logic_gates.logic_gate;operation=xor;" parent="1" vertex="1">
          <mxGeometry x="110" y="450" width="60" height="30" as="geometry" />
        </mxCell>
        <mxCell id="UhHVVZy6KvmsFMZ7R_ob-11" style="edgeStyle=orthogonalEdgeStyle;rounded=0;orthogonalLoop=1;jettySize=auto;html=1;exitX=1;exitY=0.5;exitDx=0;exitDy=0;exitPerimeter=0;endArrow=none;endFill=0;" parent="1" source="UhHVVZy6KvmsFMZ7R_ob-15" edge="1">
          <mxGeometry relative="1" as="geometry">
            <mxPoint x="150" y="515" as="targetPoint" />
          </mxGeometry>
        </mxCell>
        <mxCell id="UhHVVZy6KvmsFMZ7R_ob-12" style="edgeStyle=orthogonalEdgeStyle;rounded=0;orthogonalLoop=1;jettySize=auto;html=1;exitX=1;exitY=0.5;exitDx=0;exitDy=0;exitPerimeter=0;endArrow=none;endFill=0;" parent="1" source="UhHVVZy6KvmsFMZ7R_ob-15" edge="1">
          <mxGeometry relative="1" as="geometry">
            <mxPoint x="190" y="514.6666666666667" as="targetPoint" />
          </mxGeometry>
        </mxCell>
        <mxCell id="UhHVVZy6KvmsFMZ7R_ob-13" style="edgeStyle=orthogonalEdgeStyle;rounded=0;orthogonalLoop=1;jettySize=auto;html=1;exitX=0;exitY=0.75;exitDx=0;exitDy=0;exitPerimeter=0;endArrow=none;endFill=0;" parent="1" source="UhHVVZy6KvmsFMZ7R_ob-15" edge="1">
          <mxGeometry relative="1" as="geometry">
            <mxPoint x="50" y="522.1666666666667" as="targetPoint" />
          </mxGeometry>
        </mxCell>
        <mxCell id="UhHVVZy6KvmsFMZ7R_ob-14" style="edgeStyle=orthogonalEdgeStyle;rounded=0;orthogonalLoop=1;jettySize=auto;html=1;exitX=0;exitY=0.25;exitDx=0;exitDy=0;exitPerimeter=0;endArrow=none;endFill=0;" parent="1" source="UhHVVZy6KvmsFMZ7R_ob-15" edge="1">
          <mxGeometry relative="1" as="geometry">
            <mxPoint x="50" y="507.16666666666674" as="targetPoint" />
          </mxGeometry>
        </mxCell>
        <mxCell id="UhHVVZy6KvmsFMZ7R_ob-15" value="" style="verticalLabelPosition=bottom;shadow=0;dashed=0;align=center;html=1;verticalAlign=top;shape=mxgraph.electrical.logic_gates.logic_gate;operation=xor;" parent="1" vertex="1">
          <mxGeometry x="110" y="500" width="60" height="30" as="geometry" />
        </mxCell>
        <mxCell id="UhHVVZy6KvmsFMZ7R_ob-16" style="edgeStyle=orthogonalEdgeStyle;rounded=0;orthogonalLoop=1;jettySize=auto;html=1;exitX=1;exitY=0.5;exitDx=0;exitDy=0;exitPerimeter=0;endArrow=none;endFill=0;" parent="1" source="UhHVVZy6KvmsFMZ7R_ob-20" edge="1">
          <mxGeometry relative="1" as="geometry">
            <mxPoint x="150" y="615" as="targetPoint" />
          </mxGeometry>
        </mxCell>
        <mxCell id="UhHVVZy6KvmsFMZ7R_ob-17" style="edgeStyle=orthogonalEdgeStyle;rounded=0;orthogonalLoop=1;jettySize=auto;html=1;exitX=1;exitY=0.5;exitDx=0;exitDy=0;exitPerimeter=0;endArrow=none;endFill=0;" parent="1" source="UhHVVZy6KvmsFMZ7R_ob-20" edge="1">
          <mxGeometry relative="1" as="geometry">
            <mxPoint x="190" y="624.6666666666667" as="targetPoint" />
          </mxGeometry>
        </mxCell>
        <mxCell id="UhHVVZy6KvmsFMZ7R_ob-18" style="edgeStyle=orthogonalEdgeStyle;rounded=0;orthogonalLoop=1;jettySize=auto;html=1;exitX=0;exitY=0.75;exitDx=0;exitDy=0;exitPerimeter=0;endArrow=none;endFill=0;" parent="1" source="UhHVVZy6KvmsFMZ7R_ob-20" edge="1">
          <mxGeometry relative="1" as="geometry">
            <mxPoint x="50" y="622.1666666666667" as="targetPoint" />
          </mxGeometry>
        </mxCell>
        <mxCell id="UhHVVZy6KvmsFMZ7R_ob-19" style="edgeStyle=orthogonalEdgeStyle;rounded=0;orthogonalLoop=1;jettySize=auto;html=1;exitX=0;exitY=0.25;exitDx=0;exitDy=0;exitPerimeter=0;endArrow=none;endFill=0;" parent="1" source="UhHVVZy6KvmsFMZ7R_ob-20" edge="1">
          <mxGeometry relative="1" as="geometry">
            <mxPoint x="50" y="607.1666666666667" as="targetPoint" />
          </mxGeometry>
        </mxCell>
        <mxCell id="UhHVVZy6KvmsFMZ7R_ob-20" value="" style="verticalLabelPosition=bottom;shadow=0;dashed=0;align=center;html=1;verticalAlign=top;shape=mxgraph.electrical.logic_gates.logic_gate;operation=xor;" parent="1" vertex="1">
          <mxGeometry x="110" y="600" width="60" height="30" as="geometry" />
        </mxCell>
        <mxCell id="UhHVVZy6KvmsFMZ7R_ob-21" style="edgeStyle=orthogonalEdgeStyle;rounded=0;orthogonalLoop=1;jettySize=auto;html=1;exitX=1;exitY=0.5;exitDx=0;exitDy=0;exitPerimeter=0;endArrow=none;endFill=0;" parent="1" source="UhHVVZy6KvmsFMZ7R_ob-25" edge="1">
          <mxGeometry relative="1" as="geometry">
            <mxPoint x="150" y="665" as="targetPoint" />
          </mxGeometry>
        </mxCell>
        <mxCell id="UhHVVZy6KvmsFMZ7R_ob-22" style="edgeStyle=orthogonalEdgeStyle;rounded=0;orthogonalLoop=1;jettySize=auto;html=1;exitX=1;exitY=0.5;exitDx=0;exitDy=0;exitPerimeter=0;endArrow=none;endFill=0;" parent="1" source="UhHVVZy6KvmsFMZ7R_ob-25" edge="1">
          <mxGeometry relative="1" as="geometry">
            <mxPoint x="190" y="669.666666666667" as="targetPoint" />
          </mxGeometry>
        </mxCell>
        <mxCell id="UhHVVZy6KvmsFMZ7R_ob-23" style="edgeStyle=orthogonalEdgeStyle;rounded=0;orthogonalLoop=1;jettySize=auto;html=1;exitX=0;exitY=0.75;exitDx=0;exitDy=0;exitPerimeter=0;endArrow=none;endFill=0;" parent="1" source="UhHVVZy6KvmsFMZ7R_ob-25" edge="1">
          <mxGeometry relative="1" as="geometry">
            <mxPoint x="50" y="667.166666666667" as="targetPoint" />
          </mxGeometry>
        </mxCell>
        <mxCell id="UhHVVZy6KvmsFMZ7R_ob-24" style="edgeStyle=orthogonalEdgeStyle;rounded=0;orthogonalLoop=1;jettySize=auto;html=1;exitX=0;exitY=0.25;exitDx=0;exitDy=0;exitPerimeter=0;endArrow=none;endFill=0;" parent="1" source="UhHVVZy6KvmsFMZ7R_ob-25" edge="1">
          <mxGeometry relative="1" as="geometry">
            <mxPoint x="50" y="652.166666666667" as="targetPoint" />
          </mxGeometry>
        </mxCell>
        <mxCell id="UhHVVZy6KvmsFMZ7R_ob-25" value="" style="verticalLabelPosition=bottom;shadow=0;dashed=0;align=center;html=1;verticalAlign=top;shape=mxgraph.electrical.logic_gates.logic_gate;operation=xor;" parent="1" vertex="1">
          <mxGeometry x="110" y="645" width="60" height="30" as="geometry" />
        </mxCell>
        <mxCell id="UhHVVZy6KvmsFMZ7R_ob-26" style="edgeStyle=orthogonalEdgeStyle;rounded=0;orthogonalLoop=1;jettySize=auto;html=1;exitX=0;exitY=0.75;exitDx=0;exitDy=0;exitPerimeter=0;endArrow=none;endFill=0;" parent="1" source="UhHVVZy6KvmsFMZ7R_ob-30" edge="1">
          <mxGeometry relative="1" as="geometry">
            <mxPoint x="259" y="740" as="targetPoint" />
          </mxGeometry>
        </mxCell>
        <mxCell id="UhHVVZy6KvmsFMZ7R_ob-28" style="edgeStyle=orthogonalEdgeStyle;rounded=0;orthogonalLoop=1;jettySize=auto;html=1;exitX=0;exitY=0.75;exitDx=0;exitDy=0;exitPerimeter=0;endArrow=none;endFill=0;" parent="1" source="UhHVVZy6KvmsFMZ7R_ob-30" edge="1">
          <mxGeometry relative="1" as="geometry">
            <mxPoint x="189" y="757.166666666667" as="targetPoint" />
          </mxGeometry>
        </mxCell>
        <mxCell id="UhHVVZy6KvmsFMZ7R_ob-29" style="edgeStyle=orthogonalEdgeStyle;rounded=0;orthogonalLoop=1;jettySize=auto;html=1;exitX=0;exitY=0.25;exitDx=0;exitDy=0;exitPerimeter=0;endArrow=none;endFill=0;" parent="1" source="UhHVVZy6KvmsFMZ7R_ob-30" edge="1">
          <mxGeometry relative="1" as="geometry">
            <mxPoint x="189" y="742.166666666667" as="targetPoint" />
          </mxGeometry>
        </mxCell>
        <mxCell id="UhHVVZy6KvmsFMZ7R_ob-204" style="edgeStyle=orthogonalEdgeStyle;rounded=0;orthogonalLoop=1;jettySize=auto;html=1;exitX=1;exitY=0.5;exitDx=0;exitDy=0;exitPerimeter=0;entryX=0;entryY=0.5;entryDx=0;entryDy=0;endArrow=classic;endFill=1;" parent="1" source="UhHVVZy6KvmsFMZ7R_ob-30" target="VwCjCpoKsMonTpkTVioX-25" edge="1">
          <mxGeometry relative="1" as="geometry">
            <Array as="points">
              <mxPoint x="297" y="485" />
            </Array>
          </mxGeometry>
        </mxCell>
        <mxCell id="UhHVVZy6KvmsFMZ7R_ob-30" value="" style="verticalLabelPosition=bottom;shadow=0;dashed=0;align=center;html=1;verticalAlign=top;shape=mxgraph.electrical.logic_gates.logic_gate;operation=xor;" parent="1" vertex="1">
          <mxGeometry x="236.5" y="735" width="60" height="30" as="geometry" />
        </mxCell>
        <mxCell id="UhHVVZy6KvmsFMZ7R_ob-206" style="edgeStyle=orthogonalEdgeStyle;rounded=0;orthogonalLoop=1;jettySize=auto;html=1;exitX=1;exitY=0.5;exitDx=0;exitDy=0;entryX=0;entryY=0.5;entryDx=0;entryDy=0;endArrow=classic;endFill=1;startArrow=diamond;startFill=0;" parent="1" source="UhHVVZy6KvmsFMZ7R_ob-35" target="VwCjCpoKsMonTpkTVioX-26" edge="1">
          <mxGeometry relative="1" as="geometry">
            <Array as="points">
              <mxPoint x="330" y="820" />
              <mxPoint x="330" y="530" />
            </Array>
          </mxGeometry>
        </mxCell>
        <mxCell id="UhHVVZy6KvmsFMZ7R_ob-35" value="&lt;font face=&quot;Times New Roman&quot; style=&quot;font-size: 16px&quot;&gt;$$\mbox{Clock}$$&lt;/font&gt;" style="text;html=1;strokeColor=none;fillColor=none;align=center;verticalAlign=middle;whiteSpace=wrap;rounded=0;" parent="1" vertex="1">
          <mxGeometry x="40" y="810" width="40" height="20" as="geometry" />
        </mxCell>
        <mxCell id="UhHVVZy6KvmsFMZ7R_ob-209" style="edgeStyle=orthogonalEdgeStyle;rounded=0;orthogonalLoop=1;jettySize=auto;html=1;entryX=0.375;entryY=1;entryDx=10;entryDy=0;entryPerimeter=0;startArrow=diamond;startFill=0;endArrow=classic;endFill=1;" parent="1" source="UhHVVZy6KvmsFMZ7R_ob-38" target="kmOvb5YyVOMIQkGBQpaO-8" edge="1">
          <mxGeometry relative="1" as="geometry" />
        </mxCell>
        <mxCell id="UhHVVZy6KvmsFMZ7R_ob-38" value="&lt;font face=&quot;Times New Roman&quot; style=&quot;font-size: 16px&quot;&gt;$$\mbox{Selector}$$&lt;/font&gt;" style="text;html=1;strokeColor=none;fillColor=none;align=center;verticalAlign=middle;whiteSpace=wrap;rounded=0;rotation=0;" parent="1" vertex="1">
          <mxGeometry x="40" y="905" width="60" height="20" as="geometry" />
        </mxCell>
        <mxCell id="UhHVVZy6KvmsFMZ7R_ob-208" style="edgeStyle=orthogonalEdgeStyle;rounded=0;orthogonalLoop=1;jettySize=auto;html=1;entryX=0;entryY=0.65;entryDx=0;entryDy=3;entryPerimeter=0;startArrow=diamond;startFill=0;endArrow=classic;endFill=1;" parent="1" target="kmOvb5YyVOMIQkGBQpaO-8" edge="1">
          <mxGeometry relative="1" as="geometry">
            <mxPoint x="160" y="885" as="sourcePoint" />
            <Array as="points">
              <mxPoint x="510" y="885" />
              <mxPoint x="510" y="461" />
            </Array>
          </mxGeometry>
        </mxCell>
        <mxCell id="UhHVVZy6KvmsFMZ7R_ob-40" value="&lt;font face=&quot;Times New Roman&quot; style=&quot;font-size: 16px&quot;&gt;$$\mbox{Initial Condition}$$&lt;/font&gt;" style="text;html=1;strokeColor=none;fillColor=none;align=center;verticalAlign=middle;whiteSpace=wrap;rounded=0;rotation=0;" parent="1" vertex="1">
          <mxGeometry x="50" y="875" width="100" height="20" as="geometry" />
        </mxCell>
        <mxCell id="UhHVVZy6KvmsFMZ7R_ob-46" value="&lt;font face=&quot;Times New Roman&quot; style=&quot;font-size: 15px&quot;&gt;$$b_1$$&lt;/font&gt;" style="text;html=1;strokeColor=none;fillColor=none;align=center;verticalAlign=middle;whiteSpace=wrap;rounded=0;" parent="1" vertex="1">
          <mxGeometry x="55" y="715" width="30" height="15" as="geometry" />
        </mxCell>
        <mxCell id="UhHVVZy6KvmsFMZ7R_ob-47" style="edgeStyle=orthogonalEdgeStyle;rounded=0;orthogonalLoop=1;jettySize=auto;html=1;exitX=1;exitY=0.5;exitDx=0;exitDy=0;exitPerimeter=0;endArrow=none;endFill=0;" parent="1" source="UhHVVZy6KvmsFMZ7R_ob-51" edge="1">
          <mxGeometry relative="1" as="geometry">
            <mxPoint x="150.20689655172418" y="705.344827586207" as="targetPoint" />
          </mxGeometry>
        </mxCell>
        <mxCell id="UhHVVZy6KvmsFMZ7R_ob-48" style="edgeStyle=orthogonalEdgeStyle;rounded=0;orthogonalLoop=1;jettySize=auto;html=1;exitX=1;exitY=0.5;exitDx=0;exitDy=0;exitPerimeter=0;endArrow=none;endFill=0;" parent="1" source="UhHVVZy6KvmsFMZ7R_ob-51" edge="1">
          <mxGeometry relative="1" as="geometry">
            <mxPoint x="190" y="420" as="targetPoint" />
          </mxGeometry>
        </mxCell>
        <mxCell id="UhHVVZy6KvmsFMZ7R_ob-49" style="edgeStyle=orthogonalEdgeStyle;rounded=0;orthogonalLoop=1;jettySize=auto;html=1;exitX=0;exitY=0.25;exitDx=0;exitDy=0;exitPerimeter=0;endArrow=none;endFill=0;" parent="1" source="UhHVVZy6KvmsFMZ7R_ob-51" edge="1">
          <mxGeometry relative="1" as="geometry">
            <mxPoint x="50" y="699.666666666667" as="targetPoint" />
          </mxGeometry>
        </mxCell>
        <mxCell id="UhHVVZy6KvmsFMZ7R_ob-50" style="edgeStyle=orthogonalEdgeStyle;rounded=0;orthogonalLoop=1;jettySize=auto;html=1;exitX=0;exitY=0.75;exitDx=0;exitDy=0;exitPerimeter=0;entryX=0.957;entryY=-0.015;entryDx=0;entryDy=0;entryPerimeter=0;endArrow=none;endFill=0;" parent="1" source="UhHVVZy6KvmsFMZ7R_ob-51" edge="1">
          <mxGeometry relative="1" as="geometry">
            <mxPoint x="50.149999999999864" y="714.9500000000003" as="targetPoint" />
          </mxGeometry>
        </mxCell>
        <mxCell id="UhHVVZy6KvmsFMZ7R_ob-51" value="" style="verticalLabelPosition=bottom;shadow=0;dashed=0;align=center;html=1;verticalAlign=top;shape=mxgraph.electrical.logic_gates.logic_gate;operation=xor;" parent="1" vertex="1">
          <mxGeometry x="110" y="692.5" width="60" height="30" as="geometry" />
        </mxCell>
        <mxCell id="UhHVVZy6KvmsFMZ7R_ob-60" style="edgeStyle=orthogonalEdgeStyle;rounded=0;orthogonalLoop=1;jettySize=auto;html=1;exitX=1;exitY=0.5;exitDx=0;exitDy=0;exitPerimeter=0;endArrow=none;endFill=0;" parent="1" source="UhHVVZy6KvmsFMZ7R_ob-63" edge="1">
          <mxGeometry relative="1" as="geometry">
            <mxPoint x="190" y="564.6666666666667" as="targetPoint" />
          </mxGeometry>
        </mxCell>
        <mxCell id="UhHVVZy6KvmsFMZ7R_ob-61" style="edgeStyle=orthogonalEdgeStyle;rounded=0;orthogonalLoop=1;jettySize=auto;html=1;exitX=0;exitY=0.75;exitDx=0;exitDy=0;exitPerimeter=0;endArrow=none;endFill=0;" parent="1" source="UhHVVZy6KvmsFMZ7R_ob-63" edge="1">
          <mxGeometry relative="1" as="geometry">
            <mxPoint x="50" y="572.1666666666667" as="targetPoint" />
          </mxGeometry>
        </mxCell>
        <mxCell id="UhHVVZy6KvmsFMZ7R_ob-62" style="edgeStyle=orthogonalEdgeStyle;rounded=0;orthogonalLoop=1;jettySize=auto;html=1;exitX=0;exitY=0.25;exitDx=0;exitDy=0;exitPerimeter=0;endArrow=none;endFill=0;" parent="1" source="UhHVVZy6KvmsFMZ7R_ob-63" edge="1">
          <mxGeometry relative="1" as="geometry">
            <mxPoint x="50" y="557.1666666666667" as="targetPoint" />
          </mxGeometry>
        </mxCell>
        <mxCell id="UhHVVZy6KvmsFMZ7R_ob-63" value="" style="verticalLabelPosition=bottom;shadow=0;dashed=0;align=center;html=1;verticalAlign=top;shape=mxgraph.electrical.logic_gates.logic_gate;operation=xor;" parent="1" vertex="1">
          <mxGeometry x="110" y="550" width="60" height="30" as="geometry" />
        </mxCell>
        <mxCell id="UhHVVZy6KvmsFMZ7R_ob-64" value="&lt;font face=&quot;Times New Roman&quot; style=&quot;font-size: 15px&quot;&gt;$$b_1$$&lt;/font&gt;" style="text;html=1;strokeColor=none;fillColor=none;align=center;verticalAlign=middle;whiteSpace=wrap;rounded=0;" parent="1" vertex="1">
          <mxGeometry x="50" y="665" width="40" height="20" as="geometry" />
        </mxCell>
        <mxCell id="UhHVVZy6KvmsFMZ7R_ob-65" value="&lt;font face=&quot;Times New Roman&quot; style=&quot;font-size: 15px&quot;&gt;$$b_1$$&lt;/font&gt;" style="text;html=1;strokeColor=none;fillColor=none;align=center;verticalAlign=middle;whiteSpace=wrap;rounded=0;" parent="1" vertex="1">
          <mxGeometry x="50" y="620" width="40" height="20" as="geometry" />
        </mxCell>
        <mxCell id="UhHVVZy6KvmsFMZ7R_ob-66" value="&lt;font face=&quot;Times New Roman&quot; style=&quot;font-size: 15px&quot;&gt;$$b_1$$&lt;/font&gt;" style="text;html=1;strokeColor=none;fillColor=none;align=center;verticalAlign=middle;whiteSpace=wrap;rounded=0;" parent="1" vertex="1">
          <mxGeometry x="50" y="570" width="40" height="20" as="geometry" />
        </mxCell>
        <mxCell id="UhHVVZy6KvmsFMZ7R_ob-67" value="&lt;font face=&quot;Times New Roman&quot; style=&quot;font-size: 15px&quot;&gt;$$b_1$$&lt;/font&gt;" style="text;html=1;strokeColor=none;fillColor=none;align=center;verticalAlign=middle;whiteSpace=wrap;rounded=0;" parent="1" vertex="1">
          <mxGeometry x="50" y="520" width="40" height="20" as="geometry" />
        </mxCell>
        <mxCell id="UhHVVZy6KvmsFMZ7R_ob-68" value="&lt;font face=&quot;Times New Roman&quot; style=&quot;font-size: 15px&quot;&gt;$$b_1$$&lt;/font&gt;" style="text;html=1;strokeColor=none;fillColor=none;align=center;verticalAlign=middle;whiteSpace=wrap;rounded=0;" parent="1" vertex="1">
          <mxGeometry x="50" y="470" width="40" height="20" as="geometry" />
        </mxCell>
        <mxCell id="UhHVVZy6KvmsFMZ7R_ob-69" value="&lt;font face=&quot;Times New Roman&quot; style=&quot;font-size: 15px&quot;&gt;$$b_1$$&lt;/font&gt;" style="text;html=1;strokeColor=none;fillColor=none;align=center;verticalAlign=middle;whiteSpace=wrap;rounded=0;" parent="1" vertex="1">
          <mxGeometry x="50" y="420" width="40" height="20" as="geometry" />
        </mxCell>
        <mxCell id="UhHVVZy6KvmsFMZ7R_ob-70" value="&lt;font face=&quot;Times New Roman&quot; style=&quot;font-size: 15px&quot;&gt;$$b_{10}$$&lt;/font&gt;" style="text;html=1;strokeColor=none;fillColor=none;align=center;verticalAlign=middle;whiteSpace=wrap;rounded=0;" parent="1" vertex="1">
          <mxGeometry x="50" y="445" width="40" height="10" as="geometry" />
        </mxCell>
        <mxCell id="UhHVVZy6KvmsFMZ7R_ob-71" value="&lt;font face=&quot;Times New Roman&quot; style=&quot;font-size: 15px&quot;&gt;$$b_{11}$$&lt;/font&gt;" style="text;html=1;strokeColor=none;fillColor=none;align=center;verticalAlign=middle;whiteSpace=wrap;rounded=0;" parent="1" vertex="1">
          <mxGeometry x="55" y="490" width="30" height="20" as="geometry" />
        </mxCell>
        <mxCell id="UhHVVZy6KvmsFMZ7R_ob-72" value="&lt;font face=&quot;Times New Roman&quot; style=&quot;font-size: 15px&quot;&gt;$$b_{15}$$&lt;/font&gt;" style="text;html=1;strokeColor=none;fillColor=none;align=center;verticalAlign=middle;whiteSpace=wrap;rounded=0;" parent="1" vertex="1">
          <mxGeometry x="50" y="682.5" width="40" height="17.5" as="geometry" />
        </mxCell>
        <mxCell id="UhHVVZy6KvmsFMZ7R_ob-73" value="&lt;font face=&quot;Times New Roman&quot; style=&quot;font-size: 15px&quot;&gt;$$b_{14}$$&lt;/font&gt;" style="text;html=1;strokeColor=none;fillColor=none;align=center;verticalAlign=middle;whiteSpace=wrap;rounded=0;" parent="1" vertex="1">
          <mxGeometry x="50" y="640" width="40" height="10" as="geometry" />
        </mxCell>
        <mxCell id="UhHVVZy6KvmsFMZ7R_ob-74" value="&lt;font face=&quot;Times New Roman&quot; style=&quot;font-size: 15px&quot;&gt;$$b_{13}$$&lt;/font&gt;" style="text;html=1;strokeColor=none;fillColor=none;align=center;verticalAlign=middle;whiteSpace=wrap;rounded=0;" parent="1" vertex="1">
          <mxGeometry x="50" y="590" width="40" height="20" as="geometry" />
        </mxCell>
        <mxCell id="UhHVVZy6KvmsFMZ7R_ob-75" value="&lt;font face=&quot;Times New Roman&quot; style=&quot;font-size: 15px&quot;&gt;$$b_{12}$$&lt;/font&gt;" style="text;html=1;strokeColor=none;fillColor=none;align=center;verticalAlign=middle;whiteSpace=wrap;rounded=0;" parent="1" vertex="1">
          <mxGeometry x="50" y="540" width="40" height="20" as="geometry" />
        </mxCell>
        <mxCell id="UhHVVZy6KvmsFMZ7R_ob-76" value="&lt;font face=&quot;Times New Roman&quot; style=&quot;font-size: 15px&quot;&gt;$$b_1 \oplus b_{16}$$&lt;/font&gt;" style="text;html=1;strokeColor=none;fillColor=none;align=center;verticalAlign=middle;whiteSpace=wrap;rounded=0;" parent="1" vertex="1">
          <mxGeometry x="179" y="760" width="80" height="12.5" as="geometry" />
        </mxCell>
        <mxCell id="UhHVVZy6KvmsFMZ7R_ob-77" value="&lt;font face=&quot;Times New Roman&quot; style=&quot;font-size: 15px&quot;&gt;$$b_1 \oplus b_{15}$$&lt;/font&gt;" style="text;html=1;strokeColor=none;fillColor=none;align=center;verticalAlign=middle;whiteSpace=wrap;rounded=0;" parent="1" vertex="1">
          <mxGeometry x="179" y="720" width="80" height="20" as="geometry" />
        </mxCell>
        <mxCell id="UhHVVZy6KvmsFMZ7R_ob-78" value="&lt;font face=&quot;Times New Roman&quot; style=&quot;font-size: 15px&quot;&gt;$$b_9$$&lt;/font&gt;" style="text;html=1;strokeColor=none;fillColor=none;align=center;verticalAlign=middle;whiteSpace=wrap;rounded=0;" parent="1" vertex="1">
          <mxGeometry x="50" y="390" width="40" height="17.5" as="geometry" />
        </mxCell>
        <mxCell id="UhHVVZy6KvmsFMZ7R_ob-207" style="edgeStyle=orthogonalEdgeStyle;rounded=0;orthogonalLoop=1;jettySize=auto;html=1;exitX=1;exitY=0.5;exitDx=0;exitDy=0;entryX=0.5;entryY=1;entryDx=0;entryDy=0;startArrow=diamond;startFill=0;endArrow=classic;endFill=1;" parent="1" source="UhHVVZy6KvmsFMZ7R_ob-87" target="VwCjCpoKsMonTpkTVioX-27" edge="1">
          <mxGeometry relative="1" as="geometry" />
        </mxCell>
        <mxCell id="UhHVVZy6KvmsFMZ7R_ob-87" value="&lt;font face=&quot;Times New Roman&quot; style=&quot;font-size: 16px&quot;&gt;$$\mbox{Reset}$$&lt;/font&gt;" style="text;html=1;strokeColor=none;fillColor=none;align=center;verticalAlign=middle;whiteSpace=wrap;rounded=0;rotation=0;" parent="1" vertex="1">
          <mxGeometry x="40" y="845" width="40" height="20" as="geometry" />
        </mxCell>
        <mxCell id="UhHVVZy6KvmsFMZ7R_ob-194" value="&lt;font face=&quot;Times New Roman&quot; style=&quot;font-size: 15px&quot;&gt;$$b_1$$&lt;/font&gt;" style="text;html=1;strokeColor=none;fillColor=none;align=center;verticalAlign=middle;whiteSpace=wrap;rounded=0;" parent="1" vertex="1">
          <mxGeometry x="55" y="765" width="30" height="15" as="geometry" />
        </mxCell>
        <mxCell id="UhHVVZy6KvmsFMZ7R_ob-195" style="edgeStyle=orthogonalEdgeStyle;rounded=0;orthogonalLoop=1;jettySize=auto;html=1;exitX=1;exitY=0.5;exitDx=0;exitDy=0;exitPerimeter=0;endArrow=none;endFill=0;" parent="1" source="UhHVVZy6KvmsFMZ7R_ob-199" edge="1">
          <mxGeometry relative="1" as="geometry">
            <mxPoint x="150.20689655172418" y="755.344827586207" as="targetPoint" />
          </mxGeometry>
        </mxCell>
        <mxCell id="UhHVVZy6KvmsFMZ7R_ob-197" style="edgeStyle=orthogonalEdgeStyle;rounded=0;orthogonalLoop=1;jettySize=auto;html=1;exitX=0;exitY=0.25;exitDx=0;exitDy=0;exitPerimeter=0;endArrow=none;endFill=0;" parent="1" source="UhHVVZy6KvmsFMZ7R_ob-199" edge="1">
          <mxGeometry relative="1" as="geometry">
            <mxPoint x="50" y="749.666666666667" as="targetPoint" />
          </mxGeometry>
        </mxCell>
        <mxCell id="UhHVVZy6KvmsFMZ7R_ob-198" style="edgeStyle=orthogonalEdgeStyle;rounded=0;orthogonalLoop=1;jettySize=auto;html=1;exitX=0;exitY=0.75;exitDx=0;exitDy=0;exitPerimeter=0;entryX=0.957;entryY=-0.015;entryDx=0;entryDy=0;entryPerimeter=0;endArrow=none;endFill=0;" parent="1" source="UhHVVZy6KvmsFMZ7R_ob-199" edge="1">
          <mxGeometry relative="1" as="geometry">
            <mxPoint x="50.14999999999981" y="764.9500000000003" as="targetPoint" />
          </mxGeometry>
        </mxCell>
        <mxCell id="UhHVVZy6KvmsFMZ7R_ob-201" style="edgeStyle=orthogonalEdgeStyle;rounded=0;orthogonalLoop=1;jettySize=auto;html=1;exitX=1;exitY=0.5;exitDx=0;exitDy=0;exitPerimeter=0;endArrow=none;endFill=0;" parent="1" source="UhHVVZy6KvmsFMZ7R_ob-199" edge="1">
          <mxGeometry relative="1" as="geometry">
            <mxPoint x="190" y="700" as="targetPoint" />
          </mxGeometry>
        </mxCell>
        <mxCell id="UhHVVZy6KvmsFMZ7R_ob-199" value="" style="verticalLabelPosition=bottom;shadow=0;dashed=0;align=center;html=1;verticalAlign=top;shape=mxgraph.electrical.logic_gates.logic_gate;operation=xor;" parent="1" vertex="1">
          <mxGeometry x="110" y="742.5" width="60" height="30" as="geometry" />
        </mxCell>
        <mxCell id="UhHVVZy6KvmsFMZ7R_ob-200" value="&lt;font face=&quot;Times New Roman&quot; style=&quot;font-size: 15px&quot;&gt;$$b_{16}$$&lt;/font&gt;" style="text;html=1;strokeColor=none;fillColor=none;align=center;verticalAlign=middle;whiteSpace=wrap;rounded=0;" parent="1" vertex="1">
          <mxGeometry x="50" y="732.5" width="40" height="17.5" as="geometry" />
        </mxCell>
      </root>
    </mxGraphModel>
  </diagram>
</mxfile>
